<?xml version="1.0" encoding="UTF-8" standalone="no"?>
<!-- Created with Inkscape (http://www.inkscape.org/) -->

<svg
   xmlns:dc="http://purl.org/dc/elements/1.1/"
   xmlns:cc="http://creativecommons.org/ns#"
   xmlns:rdf="http://www.w3.org/1999/02/22-rdf-syntax-ns#"
   xmlns:svg="http://www.w3.org/2000/svg"
   xmlns="http://www.w3.org/2000/svg"
   xmlns:sodipodi="http://sodipodi.sourceforge.net/DTD/sodipodi-0.dtd"
   xmlns:inkscape="http://www.inkscape.org/namespaces/inkscape"
   width="3600"
   height="3600"
   viewBox="0 0 952.50001 952.50001"
   version="1.1"
   id="svg8"
   inkscape:version="0.92.4 (5da689c313, 2019-01-14)"
   sodipodi:docname="Pedestal_template.svg">
  <defs
     id="defs2">
    <clipPath
       clipPathUnits="userSpaceOnUse"
       id="clipPath5404">
      <g
         id="g5412"
         transform="matrix(0.99999999,0,0,-0.99999999,-1.4711583e-6,-3.8535723e-6)">
        <path
           style="fill:#e6e3de;stroke-width:2.16144991"
           d="m 1663.9933,1686.3762 c -30.142,2.1619 -65.9263,8.3489 -83.8528,14.498 -6.6652,2.2863 -16.6527,7.816 -22.1945,12.2882 -24.8068,20.0189 -26.4342,36.9474 -26.8605,279.4015 -0.335,190.5696 2.8704,287.6274 14.0455,425.2977 4.8704,59.9998 5.8556,115.5557 2.2572,127.2788 -11.6456,37.9392 -13.5403,70.2909 -5.6497,96.4654 3.082,10.2235 13.9931,21.9216 27.0958,29.0499 4.0961,2.2285 3.9471,2.5255 -2.4056,4.7944 -11.7726,4.2048 -16.9305,10.2008 -16.9305,19.6813 0,4.6962 1.0913,9.539 2.4251,10.7618 1.964,1.8006 6.1611,55.9733 6.5273,84.2475 0.052,4.0288 2.5359,8.0903 7.6539,12.5156 4.1672,3.6031 8.7686,8.5928 10.2253,11.0882 3.6088,6.182 12.3464,9.9744 30.8933,13.4086 l 15.6407,2.896 6.8361,16.7871 c 3.7599,9.2329 11.7639,23.0672 17.7867,30.7428 17.0183,21.6884 17.1363,22.1665 17.1612,69.5099 0.02,39.6805 0.3118,42.5457 5.3209,52.4078 8.7054,17.1391 25.2491,27.6071 46.379,29.3463 25.5884,2.1061 47.0195,-8.9458 58.0132,-29.917 6.0314,-11.5052 6.2754,-13.2617 6.8325,-49.1837 0.7719,-49.7766 2.1328,-55.3829 17.3239,-71.364 3.768,-3.9639 11.2929,-15.804 16.722,-26.3112 9.4532,-18.2956 10.2248,-19.1536 18.2318,-20.2736 29.3852,-4.1102 32.1481,-5.1749 44.6626,-17.2108 6.643,-6.3889 13.034,-13.9814 14.2023,-16.8722 1.1683,-2.8907 3.746,-23.373 5.7283,-45.5161 1.9823,-22.1431 4.6165,-41.1884 5.8539,-42.3228 3.4272,-3.1421 2.6824,-18.3736 -1.1434,-23.3812 -1.8662,-2.4427 -6.9454,-5.5161 -11.287,-6.8297 -4.3417,-1.3137 -7.8939,-3.2286 -7.8939,-4.2555 0,-1.0268 4.0045,-3.7399 8.8988,-6.0291 11.3423,-5.305 19.49,-15.1215 22.3815,-26.9656 7.6439,-31.3112 7.7811,-33.6863 2.8005,-48.4699 -2.655,-7.8809 -4.7346,-19.7012 -4.7346,-26.912 0,-7.0722 -1.5348,-17.5969 -3.4107,-23.3881 -2.5006,-7.7199 -2.8018,-11.9977 -1.1287,-16.0321 2.9708,-7.1635 2.9015,-19.771 -0.17,-30.9541 -2.1257,-7.7397 -1.8254,-10.0535 2.2574,-17.3906 5.1543,-9.2626 6.5906,-32.582 2.4443,-39.6848 -1.7241,-2.9535 -0.9154,-6.2076 3.3861,-13.6244 6.1861,-10.6664 7.6349,-28.1282 3.2833,-39.5724 -1.9523,-5.1344 -1.558,-7.486 2.2462,-13.3972 6.7466,-10.4833 8.2012,-24.3163 3.8416,-36.5358 -3.3774,-9.4667 -3.3634,-10.6973 0.1957,-17.1668 4.6696,-8.4878 6.5136,-32.3889 3.176,-41.1665 -2.014,-5.2965 -1.6648,-7.7343 2.0074,-14.0157 5.5278,-9.4556 5.98,-28.9504 0.8812,-37.9899 -3.3267,-5.8978 -3.2515,-6.9853 1.1287,-16.3201 5.2513,-11.1913 5.8742,-20.6911 2.2274,-33.9688 -1.9957,-7.2663 -1.8262,-9.9052 0.8897,-13.8513 5.3602,-7.7881 6.6679,-26.0372 2.8249,-39.4233 -2.9848,-10.3972 -2.9917,-12.6411 -0.059,-19.0771 3.8663,-8.4833 4.3149,-25.8041 0.9556,-36.8936 -1.8155,-5.9934 -1.5584,-9.8562 1.1413,-17.1464 4.35,-11.7465 4.4643,-25.8753 0.2835,-35.0488 -2.8726,-6.3029 -2.7386,-8.3681 1.3039,-20.1119 4.3341,-12.5907 4.3644,-13.7162 0.7975,-29.6442 -3.3783,-15.0853 -3.3939,-17.2404 -0.1752,-24.251 4.0503,-8.8223 4.6687,-29.6531 1.1334,-38.178 -1.7456,-4.2092 -1.6198,-9.3796 0.4617,-18.9803 2.4743,-11.4123 2.3521,-14.9737 -0.9044,-26.3566 -3.4487,-12.055 -3.4658,-13.8182 -0.2034,-20.9768 2.7594,-6.0547 3.2232,-11.5499 2.0584,-24.389 -0.827,-9.1154 -1.7051,-25.8865 -1.9515,-37.2692 -0.4055,-18.7363 -1.1425,-21.9849 -7.7845,-34.3115 -4.0351,-7.4887 -7.3365,-14.6099 -7.3365,-15.8248 0,-2.8658 -13.9404,-14.0665 -22.6406,-18.1912 -9.5522,-4.5286 -52.7467,-13.1803 -83.4574,-16.7162 -32.4288,-3.7338 -123.2951,-5.3396 -158.6507,-2.8039 z m 34.4935,16.8049 c -31.6565,1.9767 -80.526,10.551 -92.5414,16.2367 -7.6617,3.6256 -21.427,17.0974 -26.6554,26.0871 -4.4721,7.6896 -7.0426,22.1587 -10.6567,59.9861 -1.9367,20.2709 -3.9869,37.2831 -4.556,37.8048 -1.6277,1.4922 -0.8974,-50.5974 0.985,-70.261 2.7692,-28.9275 15.743,-50.1901 36.5873,-59.9625 14.1639,-6.6404 60.5818,-11.7644 105.8668,-11.6863 17.2112,0.03 16.281,0.2146 -9.0296,1.7951 z m 58.0778,-0.9168 c -4.6836,0.448 -11.7944,0.4405 -15.8018,-0.017 -4.0074,-0.4572 -0.1754,-0.8237 8.5156,-0.8146 8.691,0.01 11.9698,0.3833 7.2862,0.8313 z m 39.5549,2.0563 c -4.0351,0.4591 -10.638,0.4591 -14.6731,0 -4.0351,-0.4591 -0.7337,-0.8347 7.3365,-0.8347 8.0703,0 11.3717,0.3756 7.3366,0.8347 z m 28.6539,857.7414 c -6.0581,17.2732 -15.7616,29.3833 -33.6632,42.012 -11.8975,8.3932 -30.9453,16.9286 -33.1886,14.872 -0.4459,-0.4089 5.2423,-4.1687 12.6406,-8.3552 7.3982,-4.1865 18.5922,-12.8999 24.8756,-19.3631 11.1718,-11.4915 31.3875,-44.0229 32.0592,-51.59 0.186,-2.0957 0.7753,-1.1179 1.3094,2.173 0.5341,3.2908 -1.2807,12.4039 -4.033,20.2513 z m -174.148,121.6637 c 17.7521,2.3185 36.5449,4.2809 41.762,4.3609 5.217,0.08 11.5172,0.9458 14.0003,1.9241 6.3521,2.5024 -2.2537,2.4926 -54.1777,-0.062 -48.5585,-2.3887 -57.5637,-4.1349 -57.5637,-11.1625 0,-4.6274 0.1693,-4.6557 11.8513,-1.9854 6.5183,1.49 26.3758,4.606 44.1278,6.9245 z m 21.4672,154.3932 c 1.9641,0.691 2.8594,2.7877 2.1909,5.1313 -0.7682,2.6931 2.1536,7.3113 9.12,14.4149 12.3032,12.5455 16.1563,22.6931 19.6387,51.7205 3.3242,27.709 2.3937,46.5654 -2.298,46.5654 -2.801,0 -3.6253,-5.4448 -4.7703,-31.5102 -1.7391,-39.59 -3.8402,-46.6164 -18.0741,-60.4425 -6.1417,-5.9658 -12.7684,-13.0879 -14.726,-15.827 -5.8034,-8.1201 -0.9947,-13.54 8.9188,-10.0524 z m 24.1368,142.3287 c 0,6.7477 6.2494,13.7838 15.5325,17.4877 6.1767,2.4644 7.1628,3.4658 4.0413,4.1038 -7.6352,1.5606 -14.6544,-1.5383 -19.3873,-8.5591 -4.7903,-7.1059 -6.6215,-21.2699 -2.4439,-18.9028 1.2416,0.7035 2.2574,3.3452 2.2574,5.8704 z"
           id="path5406"
           inkscape:connector-curvature="0" />
        <path
           style="fill:#3d4a3b;stroke-width:2.16144991"
           d="m 1667.6525,1690.3918 c -42.4121,2.7239 -80.9373,10.0984 -95.5803,18.296 -3.1039,1.7377 -9.0339,6.0184 -13.1779,9.5128 -21.596,18.2109 -22.7608,32.0182 -23.442,277.8777 -0.4781,172.5452 -0.063,198.2575 4.5183,280.0174 2.7746,49.5146 6.7706,109.584 8.88,133.4876 4.8024,54.4207 5.3428,131.4017 0.9951,141.7659 -4.7255,11.2649 -8.1496,38.2641 -7.8035,61.5319 0.4127,27.7487 5.8181,39.6596 22.8051,50.2516 12.9097,8.0497 15.8375,12.0296 10.0086,13.6053 -19.0267,5.1434 -25.9885,14.2784 -19.9017,26.1142 2.5143,4.889 4.1543,18.8294 5.7934,49.2457 l 2.2865,42.4263 6.5623,6.2087 c 3.6094,3.4148 9.4523,9.0705 12.9844,12.5682 5.0122,4.9635 9.6429,6.9202 21.0951,8.9137 8.0702,1.4048 16.3252,2.9929 18.3443,3.5292 2.1383,0.5679 6.3074,7.6015 9.9843,16.8441 3.4722,8.728 12.3311,24.0346 19.6864,34.0147 7.3554,9.9802 14.2663,21.6719 15.3577,25.9817 1.0913,4.3097 2.0308,25.5308 2.0877,47.1578 0.1156,43.9876 1.6466,49.9325 16.0948,62.4998 10.2795,8.9412 21.8957,13.0397 36.9584,13.0397 15.0109,0 24.4546,-3.3061 36.0077,-12.6059 14.9075,-11.9998 17.2652,-20.2571 18.2653,-63.9684 0.4818,-21.0579 1.9803,-42.5264 3.33,-47.7077 1.3914,-5.3413 6.3271,-13.855 11.3983,-19.661 4.9193,-5.6322 13.985,-19.6959 20.146,-31.2526 l 11.2017,-21.0123 11.9041,-1.4007 c 23.3349,-2.7458 29.0757,-5.0688 41.6071,-16.8363 6.6063,-6.2036 12.5039,-13.343 13.1058,-15.8655 0.602,-2.5225 2.6673,-21.9474 4.5895,-43.1664 2.2526,-24.8651 4.7367,-40.8618 6.9876,-44.9985 5.9662,-10.9645 -0.4165,-21.5032 -15.2398,-25.1626 -11.2989,-2.7893 -11.0002,-6.764 0.9928,-13.2075 18.2243,-9.7916 21.7213,-14.8885 26.9231,-39.2414 4.5498,-21.3009 4.5756,-22.3999 0.7695,-32.8678 -2.1657,-5.9565 -4.7158,-19.6775 -5.6668,-30.491 -0.951,-10.8135 -2.858,-22.2221 -4.2378,-25.3523 -1.6971,-3.8501 -1.7965,-7.4088 -0.3072,-11 2.9437,-7.0983 2.791,-24.4857 -0.298,-33.9379 -2.1697,-6.6395 -1.8219,-8.8553 2.6369,-16.7968 5.5542,-9.8923 6.8414,-29.2909 2.6011,-39.1988 -1.7804,-4.1599 -1.1411,-7.0858 3.1582,-14.455 6.0263,-10.3295 7.2392,-27.0874 2.7789,-38.3958 -2.2638,-5.7395 -1.9516,-7.5999 2.3453,-13.9739 6.9336,-10.2853 8.6111,-26.0309 3.9623,-37.1908 -3.5261,-8.4647 -3.4875,-9.2695 0.8161,-17.0084 4.9872,-8.968 6.2513,-31.7714 2.2908,-41.3216 -1.7385,-4.1921 -1.2437,-7.0501 2.2574,-13.0389 5.5664,-9.5215 6.0368,-28.984 0.9198,-38.0558 -3.3267,-5.8978 -3.2515,-6.9853 1.1287,-16.3201 5.2477,-11.1837 5.8742,-20.6911 2.2362,-33.9367 -2.0349,-7.4092 -1.8087,-10.0929 1.3181,-15.6363 5.7819,-10.2508 6.8454,-26.7029 2.5012,-38.6939 -3.363,-9.2824 -3.3902,-10.9922 -0.284,-17.8079 4.0158,-8.8115 4.5144,-29.0543 0.9466,-38.4371 -1.9778,-5.2017 -1.7459,-8.2512 1.1287,-14.8378 4.6015,-10.5432 4.6311,-26.498 0.069,-36.9518 -3.2059,-7.3455 -3.2121,-8.7315 -0.065,-14.3116 6.0061,-10.6481 6.818,-22.2337 2.5671,-36.6311 -3.7036,-12.5439 -3.706,-13.7674 -0.044,-22.5576 3.0247,-7.2611 3.5435,-12.6005 2.3714,-24.4074 -1.9454,-19.596 -1.9546,-25.0955 -0.066,-39.2138 1.1356,-8.4885 0.5523,-14.4732 -2.133,-21.8854 -3.4106,-9.4138 -3.4138,-10.8215 -0.041,-18.2212 2.863,-6.2818 3.3294,-11.6287 2.153,-24.6801 -0.826,-9.1634 -1.359,-24.8226 -1.1845,-34.7981 0.2835,-16.2016 -0.4474,-19.7357 -6.848,-33.1132 -3.9409,-8.2368 -8.5198,-17.3042 -10.1752,-20.1499 -7.4535,-12.8125 -43.399,-23.701 -99.1888,-30.0459 -33.0437,-3.7581 -119.1763,-5.4575 -156.1727,-3.0815 z m 161.7637,11.0697 c 13.0365,1.715 30.8136,4.6199 39.5046,6.4554 17.5563,3.7078 44.0566,14.9396 46.578,19.7415 15.6836,29.869 18.3956,41.4385 13.0246,55.5636 -2.0737,5.4538 -1.6363,8.3689 2.6931,17.9453 4.5322,10.0248 4.8709,12.6394 2.7491,21.2191 -1.3311,5.382 -3.7702,12.7848 -5.4204,16.4507 -2.5875,5.7483 -2.4683,8.0259 0.8668,16.5566 4.8643,12.4422 4.9023,23.2395 0.1142,32.4449 -3.5686,6.8609 -3.5098,7.6425 1.3561,18.0123 5.8061,12.3738 5.1879,21.8044 -2.3131,35.2842 l -4.568,8.2089 4.6278,11.3398 c 5.8778,14.4026 5.826,21.3157 -0.2565,34.2784 -4.7172,10.0531 -4.7555,10.7387 -1.1175,20.0446 5.0412,12.8959 4.7303,23.9289 -0.9692,34.3915 -4.4562,8.1802 -4.5178,9.0822 -1.1287,16.5186 4.9613,10.8861 4.5983,27.4187 -0.8049,36.6611 -4.3622,7.4618 -4.3608,7.5782 0.2261,18.5955 5.336,12.8168 4.37,31.0303 -1.9875,37.4707 -3.2783,3.3211 -3.4094,5.2779 -1.0538,15.7335 3.8235,16.971 3.3637,24.6308 -2.0993,34.9769 -4.7372,8.9715 -4.7433,9.1642 -0.5643,17.6701 6.087,12.3895 5.0796,26.5639 -2.6111,36.7381 -6.0912,8.0583 -6.1086,8.1793 -1.9878,13.8529 6.1573,8.4775 5.4361,27.4741 -1.484,39.0878 -4.9098,8.2401 -5.1072,9.5997 -2.2886,15.766 6.9145,15.1269 5.6375,25.4162 -5.298,42.6895 -2.6343,4.1611 -2.6252,5.9408 0.06,11.8336 6.0416,13.2564 4.0675,27.0733 -5.9496,41.6438 -2.7294,3.9701 -2.5992,5.943 0.9978,15.1135 5.0723,12.9318 3.5661,24.6917 -4.5408,35.4532 -5.5597,7.3803 -5.5986,7.6939 -1.9242,15.5218 4.3251,9.2142 5.1486,28.8444 1.3559,32.3215 -3.3286,3.0517 -3.3274,12.4418 0,15.4942 1.4201,1.3019 3.4098,11.3618 4.4215,22.3553 1.0118,10.9935 3.481,25.1646 5.4871,31.4913 3.3717,10.6331 3.3626,12.9248 -0.1203,30.3001 -2.0724,10.3384 -4.6823,20.3633 -5.7997,22.2776 -1.1175,1.9142 -7.9361,6.7687 -15.1525,10.7877 -13.7492,7.6572 -17.9217,12.7103 -18.9915,22.9993 -1.2454,11.978 -4.2524,12.3572 -104.032,13.116 -112.708,0.8572 -170.1178,-2.4359 -171.0388,-9.8112 -2.0909,-16.7434 -3.3569,-18.437 -25.2077,-33.7212 -5.9893,-4.1894 -8.652,-8.0925 -10.5893,-15.5218 -5.3062,-20.349 -3.3347,-60.0927 3.9828,-80.2906 4.9992,-13.7989 4.88,-84.2648 -0.2468,-145.905 -2.0355,-24.4728 -4.3123,-58.4655 -5.0596,-75.5395 -0.7473,-17.074 -3.0646,-57.1203 -5.1495,-88.9917 -3.1383,-47.9745 -3.7089,-90.5405 -3.3151,-247.3142 0.63,-250.8168 2.0111,-264.8954 27.4392,-279.7116 15.2457,-8.8832 42.7189,-15.981 74.7334,-19.3077 36.8659,-3.8307 148.6865,-2.7862 182.8497,1.7081 z m -133.1868,17.6944 c -20.7057,1.8456 -31.3509,5.0122 -46.2777,13.7662 -15.2133,8.9222 -27.4667,21.6567 -30.1693,31.3539 -1.2076,4.333 -3.3017,24.1761 -4.6536,44.0958 -1.3519,19.9196 -2.9717,42.7367 -3.5996,50.7046 -2.1597,27.4074 -7.8451,314.4862 -7.7037,388.9895 0.2281,120.1815 3.849,244.0732 7.6401,261.417 3.6923,16.8916 18.4161,50.2286 28.8017,65.2115 8.4848,12.2408 28.756,29.1618 42.8901,35.8017 59.0708,27.7504 126.0315,-13.5999 143.8037,-88.8033 6.0765,-25.7132 8.5964,-62.6447 10.4736,-153.501 0.8231,-39.8393 1.8365,-78.9543 2.252,-86.9222 0.4155,-7.9678 1.4248,-106.6865 2.2428,-219.3749 1.6568,-228.2373 0.4402,-272.1762 -8.0512,-290.7753 -10.3395,-22.6468 -30.7933,-41.8182 -51.8993,-48.6452 -11.0279,-3.5672 -61.1826,-5.508 -85.7496,-3.3183 z m 88.8501,15.6816 c 14.7957,6.8729 26.8788,18.3464 33.541,31.8485 7.9228,16.057 9.0723,54.6046 7.538,252.7824 -3.7322,482.0509 -3.6893,480.1695 -11.5693,507.1647 -12.8623,44.063 -35.8636,69.3792 -72.4341,79.7236 -16.6303,4.7041 -18.0471,4.7885 -31.6873,1.8883 -42.2838,-8.9903 -68.0666,-36.396 -83.7056,-88.9742 l -6.1558,-20.6958 0.2483,-198.6792 c 0.2752,-220.1623 4.4411,-499.3153 7.7771,-521.1372 1.1848,-7.7502 3.6431,-16.7309 5.4629,-19.9571 4.9771,-8.8238 24.2558,-20.7074 42.5027,-26.1992 14.9132,-4.4885 19.4867,-4.8494 55.7505,-4.3994 38.8372,0.482 39.728,0.594 52.7316,6.6346 z m 99.8012,36.0474 c -1.5363,2.2789 4.216,6.9172 6.2575,5.0456 0.8169,-0.749 1.4853,-2.6035 1.4853,-4.1212 0,-3.0831 -5.8193,-3.7778 -7.7428,-0.9244 z m -8.5989,26.5124 c -1.6857,2.937 0.9223,21.3224 3.0246,21.3224 1.1165,0 2.1825,-3.7253 2.3687,-8.2783 0.1862,-4.5531 0.4402,-9.3649 0.5643,-10.6929 0.2664,-2.8491 -4.5751,-4.7599 -5.9576,-2.3512 z m 16.3656,14.0525 c -4.2438,4.6879 -1.0383,9.3394 6.436,9.3394 7.3686,0 10.9638,-5.0277 6.8471,-9.5754 -3.3794,-3.7331 -9.7933,-3.6192 -13.2831,0.236 z m -6.0469,41.5783 c -0.7516,1.7957 0.151,4.6561 2.0057,6.3566 2.9915,2.7425 3.7999,2.6997 7.1588,-0.3798 2.9298,-2.6859 3.1956,-4.1242 1.1748,-6.3565 -3.4838,-3.8485 -8.649,-3.6588 -10.3393,0.3797 z m -12.0362,41.3828 c 0,7.9001 0.6531,9.3495 3.9504,8.7673 2.1728,-0.3836 3.8489,-1.8488 3.7247,-3.2561 -0.1241,-1.4072 -0.3781,-5.3525 -0.5643,-8.7673 -0.2183,-4.0012 -1.5426,-6.2087 -3.7247,-6.2087 -2.5163,0 -3.3861,2.4313 -3.3861,9.4648 z m 18.4014,0.6453 c -5.5608,3.2309 -2.0528,9.5508 5.3013,9.5508 4.7731,0 6.9464,-1.1234 7.5278,-3.8911 0.7921,-3.7707 -2.9144,-7.4282 -7.5278,-7.4282 -1.2416,0 -3.6271,0.7959 -5.3013,1.7685 z m -6.2566,44.6345 c -1.7504,4.1819 0.8529,7.3426 6.0476,7.3426 3.1688,0 4.3816,-1.4321 4.3816,-5.1739 0,-3.8209 -1.1992,-5.174 -4.5856,-5.174 -2.5222,0 -5.1517,1.3524 -5.8436,3.0053 z m -12.3397,30.4529 c -0.1072,0.3794 -0.486,5.1135 -0.8419,10.5203 -0.4725,7.1791 0.1772,9.8305 2.4093,9.8305 5.9692,0 7.2918,-18.4247 1.4492,-20.1888 -1.5519,-0.4685 -2.9094,-0.5415 -3.0166,-0.162 z m 15.3479,11.2876 c -3.1051,2.8467 -1.5659,8.7967 2.5882,10.0054 6.5548,1.9073 11.9298,-0.9161 11.16,-5.8622 -0.6873,-4.4164 -10.2928,-7.3111 -13.7482,-4.1432 z m -6.8759,41.4865 c -2.6723,2.4499 -1.5986,8.4924 1.7162,9.6585 4.1281,1.4523 8.9707,-3.8217 7.2606,-7.9075 -1.3492,-3.2233 -6.3144,-4.1918 -8.9768,-1.751 z m -13.8036,37.7685 c -1.5833,2.3488 2.1377,11.7058 5.3872,13.5471 1.5403,0.8727 2.3967,-1.6439 2.3967,-7.0425 0,-5.9345 -0.9549,-8.4005 -3.2529,-8.4005 -1.7891,0 -3.828,0.8532 -4.531,1.8959 z m 19.0709,7.4172 c -2.242,2.4767 -2.242,3.7321 0,6.2088 5.6263,6.2152 18.0431,1.0963 14.9965,-6.1824 -1.6879,-4.0326 -11.3545,-4.0496 -14.9965,-0.026 z m -8.2164,43.4686 c -1.9198,4.5865 4.9678,11.0422 8.412,7.8845 3.5129,-3.2206 1.6262,-9.7825 -3.0501,-10.6081 -2.1623,-0.3818 -4.5751,0.8438 -5.3619,2.7236 z m -12.8607,39.7045 c -1.3047,7.3709 1.2202,13.3305 4.4091,10.407 2.5372,-2.3261 2.1141,-16.5377 -0.5177,-17.3864 -1.4225,-0.4587 -3.1108,2.5694 -3.8914,6.9794 z m 19.0571,3.4868 c -4.1167,4.5476 -0.5215,9.5754 6.8472,9.5754 7.4742,0 10.6797,-4.6516 6.436,-9.3395 -3.4899,-3.8551 -9.9037,-3.9691 -13.2832,-0.2359 z m -9.361,45.8968 c -2.3992,2.6502 -2.2509,3.8072 0.8522,6.6522 3.5038,3.2122 4.0093,3.2122 7.5131,0 3.1032,-2.845 3.2514,-4.002 0.8523,-6.6522 -1.5973,-1.7645 -3.6713,-3.2082 -4.6088,-3.2082 -0.9375,0 -3.0115,1.4437 -4.6088,3.2082 z m -15.2883,39.6097 c -1.3534,2.3662 -1.3524,5.6545 0,8.9214 2.1094,5.0851 2.2032,5.1031 5.462,1.0498 3.7363,-4.6473 3.3802,-11.6968 -0.6523,-12.9135 -1.4679,-0.4429 -3.6335,0.8811 -4.8124,2.9423 z m 18.971,8.149 c -1.5994,3.821 2.2633,9.0507 6.6848,9.0507 1.6216,0 4.5798,-1.4956 6.5737,-3.3236 2.799,-2.5661 3.03,-3.9812 1.0135,-6.2087 -3.5697,-3.9434 -12.5467,-3.6405 -14.272,0.4816 z m -9.5031,49.3083 c -1.7226,4.1155 0.8293,7.3427 5.8061,7.3427 4.4376,0 6.8323,-3.5528 5.2311,-7.761 -1.3578,-3.5688 -9.4974,-3.2604 -11.0372,0.4183 z m -12.6796,47.8091 c -1.2463,8.9895 1.2406,13.5232 5.3509,9.7549 1.9067,-1.748 1.6952,-4.3306 -0.8298,-10.1346 l -3.3886,-7.7889 z m 17.1529,-0.1097 c -2.1323,5.0944 0.9354,9.3131 6.7722,9.3131 5.8369,0 8.9046,-4.2187 6.7722,-9.3131 -0.7146,-1.7074 -3.7621,-3.1044 -6.7722,-3.1044 -3.01,0 -6.0575,1.397 -6.7722,3.1044 z m -11.2455,53.7098 c -1.7504,4.1819 0.8528,7.3426 6.0476,7.3426 3.1687,0 4.3816,-1.4321 4.3816,-5.1739 0,-3.8209 -1.1992,-5.174 -4.5857,-5.174 -2.5221,0 -5.1517,1.3524 -5.8435,3.0053 z m -17.5465,45.7982 c -2.079,4.967 0.7705,16.9392 4.3298,18.1914 4.8187,1.6952 8.1915,-3.9935 7.4254,-12.5241 -0.5592,-6.226 -1.728,-8.0385 -5.5019,-8.5321 -2.8757,-0.3762 -5.3762,0.7694 -6.2533,2.8648 z m 20.2773,8.3722 c -1.9198,4.5866 2.8782,9.3866 8.6295,8.6332 3.2496,-0.4256 4.9341,-2.3839 5.4267,-6.3086 0.6368,-5.0741 -0.01,-5.6913 -5.9664,-5.6913 -4.0872,0 -7.2276,1.3069 -8.0898,3.3667 z m -10.2788,57.5951 c -3.3593,3.7109 -1.2229,7.3342 4.3245,7.3342 5.0506,0 7.4631,-4.8467 3.9952,-8.0261 -3.3485,-3.0699 -5.0418,-2.9291 -8.3197,0.6919 z m -15.6113,56.537 c -3.9663,6.7945 -3.2258,13.3095 1.4205,12.4976 4.5572,-0.7963 6.3634,-8.2246 3.2428,-13.3369 -1.9366,-3.1725 -2.3665,-3.0951 -4.6633,0.8393 z m 17.8909,1.3866 c -6.0966,6.7347 3.9927,14.8375 10.7552,8.6376 2.8749,-2.6357 3.1693,-4.2528 1.2761,-7.0091 -3.2962,-4.7987 -8.5213,-5.5059 -12.0313,-1.6285 z m -28.1605,43.7241 c -4.2248,3.8732 -4.5878,9.4531 -0.8385,12.8904 4.6756,4.2866 10.7421,2.7244 15.1344,-3.8971 4.0721,-6.1389 8.3666,-5.5295 5.7129,0.8106 -1.5203,3.6321 3.0305,6.8582 5.9277,4.2021 2.8893,-2.6489 -0.1842,-17.2582 -3.631,-17.2582 -1.5964,0 -3.2898,1.0648 -3.763,2.3663 -0.6455,1.7754 -2.0647,1.7754 -5.6832,0 -6.4044,-3.1423 -8.6331,-2.9888 -12.8593,0.8859 z m 9.997,6.0608 c 0,1.7074 -1.5237,3.1044 -3.3861,3.1044 -1.8623,0 -3.3861,-1.397 -3.3861,-3.1044 0,-1.7074 1.5238,-3.1043 3.3861,-3.1043 1.8624,0 3.3861,1.3969 3.3861,3.1043 z m -154.6321,208.8726 c 33.1882,2.73 85.6935,2.69 99.2499,-0.075 3.7664,-0.7684 11.2324,-1.5723 16.5911,-1.7864 9.4122,-0.3762 9.6936,-0.2084 8.284,4.9404 -1.7864,6.5253 -22.2571,37.9201 -27.1558,41.6474 -1.9509,1.4844 -6.2822,6.964 -9.6249,12.177 -5.939,9.2615 -6.0838,10.3052 -6.34,45.6956 -0.3348,46.2402 -1.7779,55.6236 -10.1929,66.2735 -7.7185,9.7686 -25.2015,20.6486 -33.1799,20.6486 -20.1118,0 -40.9483,-14.9158 -45.055,-32.2526 -1.3255,-5.5955 -2.4386,-27.2394 -2.4737,-48.0975 -0.035,-20.8581 -0.7458,-39.95 -1.5796,-42.4263 -0.8339,-2.4764 -6.3265,-10.5995 -12.2059,-18.0514 -14.1467,-17.9304 -28.7514,-47.5318 -25.6911,-52.0715 0.7684,-1.1399 4.5377,-1.4664 8.45,-0.7321 3.8845,0.729 22.3002,2.5789 40.9238,4.1108 z"
           id="path5408"
           inkscape:connector-curvature="0" />
        <path
           style="fill:#059205;stroke-width:2.16144991"
           d="m 1564.7357,2688.1069 c -4.68,2.499 -5.2173,10.781 -0.9119,14.0568 2.2502,1.7121 3.4461,12.81 4.6089,42.7718 0.8636,22.2529 2.5233,42.7581 3.6883,45.5671 1.1649,2.809 4.678,6.1766 7.8068,7.4836 3.1289,1.307 5.6888,3.9451 5.6888,5.8625 0,5.7165 7.4855,10.2088 20.4915,12.2977 24.2033,3.8873 90.3754,6.5801 153.4275,6.2434 85.4345,-0.4562 104.4611,-2.9008 107.4464,-13.8056 0.7365,-2.6903 4.1305,-6.2148 7.5424,-7.8323 7.4564,-3.5351 7.8777,-5.5123 11.4677,-53.8279 2.8407,-38.2315 2.6631,-37.249 7.9346,-43.8833 3.4191,-4.303 3.2895,-4.8684 -2.2884,-9.9823 -6.4472,-5.9107 -13.5815,-5.7737 -27.0046,0.5186 -10.0421,4.7075 -80.7125,7.3961 -155.35,5.9103 -76.8181,-1.5291 -108.3959,-3.9581 -123.7933,-9.5222 -12.7938,-4.6233 -15.177,-4.8367 -20.7547,-1.8582 z"
           id="path5410"
           inkscape:connector-curvature="0" />
      </g>
    </clipPath>
  </defs>
  <sodipodi:namedview
     id="base"
     pagecolor="#ffffff"
     bordercolor="#666666"
     borderopacity="1.0"
     inkscape:pageopacity="0.0"
     inkscape:pageshadow="2"
     inkscape:zoom="0.175"
     inkscape:cx="1402.4906"
     inkscape:cy="2195.3388"
     inkscape:document-units="mm"
     inkscape:current-layer="g4781"
     showgrid="false"
     units="px"
     width="200px"
     inkscape:pagecheckerboard="true"
     inkscape:window-width="1574"
     inkscape:window-height="1008"
     inkscape:window-x="2897"
     inkscape:window-y="0"
     inkscape:window-maximized="0" />
  <metadata
     id="metadata5">
    <rdf:RDF>
      <cc:Work
         rdf:about="">
        <dc:format>image/svg+xml</dc:format>
        <dc:type
           rdf:resource="http://purl.org/dc/dcmitype/StillImage" />
        <dc:title></dc:title>
      </cc:Work>
    </rdf:RDF>
  </metadata>
  <g
     inkscape:label="Layer 1"
     inkscape:groupmode="layer"
     id="layer1"
     transform="translate(0,655.5)">
    <g
       transform="matrix(0.29738471,0,0,-0.32437446,-176.21981,297.41037)"
       inkscape:label="ink_ext_XXXXXX"
       id="g4781">
      <path
         inkscape:connector-curvature="0"
         id="path4785"
         style="fill:#e9e3df;fill-opacity:1;fill-rule:nonzero;stroke:none;stroke-width:0.52335316"
         d="m 2819.4333,1296.2255 h -1256.048 c 0,0 57.569,-491.66934 628.0237,-547.17623 v -0.13083 0.0627 -0.0627 0.13083 c 570.4554,55.50689 628.0243,547.17623 628.0243,547.17623" />
      <path
         inkscape:connector-curvature="0"
         id="path4787"
         style="fill:#d4cfcc;fill-opacity:1;fill-rule:nonzero;stroke:none;stroke-width:0.52335316"
         d="m 1725.5658,961.27943 c 39.0144,-41.86825 87.1995,-80.58586 146.6797,-115.13769 h 638.3252 c 59.4849,34.55183 107.6699,73.26944 146.6807,115.13769 h -931.6856" />
      <path
         inkscape:connector-curvature="0"
         id="path4789"
         style="fill:#d4cfcc;fill-opacity:1;fill-rule:nonzero;stroke:none;stroke-width:0.52335316"
         d="M 2572.2902,1.4079767 H 1827.3863 V 512.54599 h 744.9039 V 1.4079767" />
      <path
         inkscape:connector-curvature="0"
         id="path4791"
         style="fill:#bab8b4;fill-opacity:1;fill-rule:nonzero;stroke:none;stroke-width:0.52335316"
         d="m 2070.5041,3.9470243 h -95.6636 V 348.78989 c 0,26.41672 21.4155,47.83344 47.8345,47.83344 26.4185,0 47.8291,-21.41672 47.8291,-47.83344 V 3.9470243" />
      <path
         inkscape:connector-curvature="0"
         id="path4793"
         style="fill:#bab8b4;fill-opacity:1;fill-rule:nonzero;stroke:none;stroke-width:0.52335316"
         d="m 2247.6223,3.9470243 h -95.6689 V 348.78989 c 0,26.41672 21.4209,47.83344 47.8397,47.83344 26.4136,0 47.8292,-21.41672 47.8292,-47.83344 V 3.9470243" />
      <path
         inkscape:connector-curvature="0"
         id="path4795"
         style="fill:#bab8b4;fill-opacity:1;fill-rule:nonzero;stroke:none;stroke-width:0.52335316"
         d="m 2424.7408,3.9470243 h -95.669 V 348.78989 c 0,26.41672 21.4156,47.83344 47.8345,47.83344 26.4188,0 47.8345,-21.41672 47.8345,-47.83344 V 3.9470243" />
      <path
         inkscape:connector-curvature="0"
         id="path4797"
         style="fill:#e9e3df;fill-opacity:1;fill-rule:nonzero;stroke:none;stroke-width:0.52335316"
         d="M 2619.8107,720.1236 H 1740.62 c -49.8551,0 -90.2742,40.41856 -90.2742,90.27313 0,49.8599 40.4191,90.27317 90.2742,90.27317 h 879.1907 c 49.8545,0 90.2731,-40.41327 90.2731,-90.27317 0,-49.85457 -40.4186,-90.27313 -90.2731,-90.27313" />
      <path
         inkscape:connector-curvature="0"
         id="path4799"
         style="fill:#d4cfcc;fill-opacity:1;fill-rule:nonzero;stroke:none;stroke-width:0.52335316"
         d="M 2578.6908,579.23165 H 1814.595 V 720.537 h 764.0958 V 579.23165" />
      <path
         inkscape:connector-curvature="0"
         id="path4801"
         style="fill:#e9e3df;fill-opacity:1;fill-rule:nonzero;stroke:none;stroke-width:0.52335316"
         d="m 2607.3183,489.81105 h -833.2727 c -32.5259,0 -58.8941,26.36805 -58.8941,58.89347 0,32.52111 26.3682,58.88769 58.8941,58.88769 h 833.2727 c 32.5264,0 58.8929,-26.36658 58.8929,-58.88769 0,-32.52542 -26.3665,-58.89347 -58.8929,-58.89347" />
      <path
         inkscape:connector-curvature="0"
         id="path4803"
         style="fill:#efe9e7;fill-opacity:1;fill-rule:nonzero;stroke:none;stroke-width:0.52335316"
         d="M 2861.3015,1249.1236 H 1526.7507 v 115.1377 h 1334.5508 v -115.1377" />
    </g>
  </g>
</svg>
