<?xml version="1.0" encoding="UTF-8" standalone="no"?>
<!-- Created with Inkscape (http://www.inkscape.org/) -->

<svg
   xmlns:dc="http://purl.org/dc/elements/1.1/"
   xmlns:cc="http://creativecommons.org/ns#"
   xmlns:rdf="http://www.w3.org/1999/02/22-rdf-syntax-ns#"
   xmlns:svg="http://www.w3.org/2000/svg"
   xmlns="http://www.w3.org/2000/svg"
   xmlns:sodipodi="http://sodipodi.sourceforge.net/DTD/sodipodi-0.dtd"
   xmlns:inkscape="http://www.inkscape.org/namespaces/inkscape"
   width="400"
   height="400"
   viewBox="0 0 105.83333 105.83334"
   version="1.1"
   id="svg8"
   inkscape:version="0.92.4 (5da689c313, 2019-01-14)"
   sodipodi:docname="teleport.svg">
  <defs
     id="defs2">
    <clipPath
       clipPathUnits="userSpaceOnUse"
       id="clipPath1025">
      <rect
         style="opacity:1;fill:#ffffff;fill-opacity:0;fill-rule:evenodd;stroke:#00ffff;stroke-width:0.48097408;stroke-miterlimit:4;stroke-dasharray:none;stroke-dashoffset:0;stroke-opacity:1;paint-order:normal"
         id="rect1027"
         width="63.423141"
         height="84.117737"
         x="2.953162"
         y="-21.506851" />
    </clipPath>
    <clipPath
       clipPathUnits="userSpaceOnUse"
       id="clipPath1029">
      <rect
         style="opacity:1;fill:#ffffff;fill-opacity:0;fill-rule:evenodd;stroke:#00ffff;stroke-width:0.48097408;stroke-miterlimit:4;stroke-dasharray:none;stroke-dashoffset:0;stroke-opacity:1;paint-order:normal"
         id="rect1031"
         width="63.423141"
         height="84.117737"
         x="2.953162"
         y="-21.506851" />
    </clipPath>
    <clipPath
       clipPathUnits="userSpaceOnUse"
       id="clipPath1033">
      <rect
         style="opacity:1;fill:#ffffff;fill-opacity:0;fill-rule:evenodd;stroke:#00ffff;stroke-width:0.48097408;stroke-miterlimit:4;stroke-dasharray:none;stroke-dashoffset:0;stroke-opacity:1;paint-order:normal"
         id="rect1035"
         width="63.423141"
         height="84.117737"
         x="2.953162"
         y="-21.506851" />
    </clipPath>
    <clipPath
       clipPathUnits="userSpaceOnUse"
       id="clipPath1037">
      <rect
         style="opacity:1;fill:#ffffff;fill-opacity:0;fill-rule:evenodd;stroke:#00ffff;stroke-width:0.48097408;stroke-miterlimit:4;stroke-dasharray:none;stroke-dashoffset:0;stroke-opacity:1;paint-order:normal"
         id="rect1039"
         width="63.423141"
         height="84.117737"
         x="2.953162"
         y="-21.506851" />
    </clipPath>
    <clipPath
       clipPathUnits="userSpaceOnUse"
       id="clipPath1041">
      <rect
         style="opacity:1;fill:#ffffff;fill-opacity:0;fill-rule:evenodd;stroke:#00ffff;stroke-width:0.48097408;stroke-miterlimit:4;stroke-dasharray:none;stroke-dashoffset:0;stroke-opacity:1;paint-order:normal"
         id="rect1043"
         width="63.423141"
         height="84.117737"
         x="12.657248"
         y="1.9916246" />
    </clipPath>
    <clipPath
       clipPathUnits="userSpaceOnUse"
       id="clipPath1045">
      <rect
         style="opacity:1;fill:#ffffff;fill-opacity:0;fill-rule:evenodd;stroke:#00ffff;stroke-width:0.48097408;stroke-miterlimit:4;stroke-dasharray:none;stroke-dashoffset:0;stroke-opacity:1;paint-order:normal"
         id="rect1047"
         width="63.423141"
         height="84.117737"
         x="12.657248"
         y="1.9916246" />
    </clipPath>
    <clipPath
       clipPathUnits="userSpaceOnUse"
       id="clipPath1049">
      <rect
         style="opacity:1;fill:#ffffff;fill-opacity:0;fill-rule:evenodd;stroke:#00ffff;stroke-width:0.48097408;stroke-miterlimit:4;stroke-dasharray:none;stroke-dashoffset:0;stroke-opacity:1;paint-order:normal"
         id="rect1051"
         width="63.423141"
         height="84.117737"
         x="2.953162"
         y="-21.506851" />
    </clipPath>
    <clipPath
       clipPathUnits="userSpaceOnUse"
       id="clipPath1053">
      <rect
         style="opacity:1;fill:#ffffff;fill-opacity:0;fill-rule:evenodd;stroke:#00ffff;stroke-width:0.48097408;stroke-miterlimit:4;stroke-dasharray:none;stroke-dashoffset:0;stroke-opacity:1;paint-order:normal"
         id="rect1055"
         width="63.423141"
         height="84.117737"
         x="12.657248"
         y="1.9916246" />
    </clipPath>
    <clipPath
       clipPathUnits="userSpaceOnUse"
       id="clipPath1057">
      <rect
         style="opacity:1;fill:#ffffff;fill-opacity:0;fill-rule:evenodd;stroke:#00ffff;stroke-width:0.48097408;stroke-miterlimit:4;stroke-dasharray:none;stroke-dashoffset:0;stroke-opacity:1;paint-order:normal"
         id="rect1059"
         width="63.423141"
         height="84.117737"
         x="2.953162"
         y="-21.506851" />
    </clipPath>
    <clipPath
       clipPathUnits="userSpaceOnUse"
       id="clipPath1061">
      <rect
         style="opacity:1;fill:#ffffff;fill-opacity:0;fill-rule:evenodd;stroke:#00ffff;stroke-width:0.48097408;stroke-miterlimit:4;stroke-dasharray:none;stroke-dashoffset:0;stroke-opacity:1;paint-order:normal"
         id="rect1063"
         width="63.423141"
         height="84.117737"
         x="2.953162"
         y="-21.506851" />
    </clipPath>
    <clipPath
       clipPathUnits="userSpaceOnUse"
       id="clipPath1065">
      <rect
         style="opacity:1;fill:#ffffff;fill-opacity:0;fill-rule:evenodd;stroke:#00ffff;stroke-width:0.48097408;stroke-miterlimit:4;stroke-dasharray:none;stroke-dashoffset:0;stroke-opacity:1;paint-order:normal"
         id="rect1067"
         width="63.423141"
         height="84.117737"
         x="2.953162"
         y="-21.506851" />
    </clipPath>
    <clipPath
       clipPathUnits="userSpaceOnUse"
       id="clipPath1069">
      <rect
         style="opacity:1;fill:#ffffff;fill-opacity:0;fill-rule:evenodd;stroke:#00ffff;stroke-width:0.48097408;stroke-miterlimit:4;stroke-dasharray:none;stroke-dashoffset:0;stroke-opacity:1;paint-order:normal"
         id="rect1071"
         width="63.423141"
         height="84.117737"
         x="2.953162"
         y="-21.506851" />
    </clipPath>
    <clipPath
       clipPathUnits="userSpaceOnUse"
       id="clipPath1073">
      <rect
         style="opacity:1;fill:#ffffff;fill-opacity:0;fill-rule:evenodd;stroke:#00ffff;stroke-width:0.48097408;stroke-miterlimit:4;stroke-dasharray:none;stroke-dashoffset:0;stroke-opacity:1;paint-order:normal"
         id="rect1075"
         width="63.423141"
         height="84.117737"
         x="2.953162"
         y="-21.506851" />
    </clipPath>
    <clipPath
       clipPathUnits="userSpaceOnUse"
       id="clipPath1077">
      <rect
         style="opacity:1;fill:#ffffff;fill-opacity:0;fill-rule:evenodd;stroke:#00ffff;stroke-width:0.48097408;stroke-miterlimit:4;stroke-dasharray:none;stroke-dashoffset:0;stroke-opacity:1;paint-order:normal"
         id="rect1079"
         width="63.423141"
         height="84.117737"
         x="2.953162"
         y="-21.506851" />
    </clipPath>
    <clipPath
       clipPathUnits="userSpaceOnUse"
       id="clipPath1081">
      <rect
         style="opacity:1;fill:#ffffff;fill-opacity:0;fill-rule:evenodd;stroke:#00ffff;stroke-width:0.48097408;stroke-miterlimit:4;stroke-dasharray:none;stroke-dashoffset:0;stroke-opacity:1;paint-order:normal"
         id="rect1083"
         width="63.423141"
         height="84.117737"
         x="2.953162"
         y="-21.506851" />
    </clipPath>
    <clipPath
       clipPathUnits="userSpaceOnUse"
       id="clipPath1085">
      <rect
         style="opacity:1;fill:#ffffff;fill-opacity:0;fill-rule:evenodd;stroke:#00ffff;stroke-width:0.48097408;stroke-miterlimit:4;stroke-dasharray:none;stroke-dashoffset:0;stroke-opacity:1;paint-order:normal"
         id="rect1087"
         width="63.423141"
         height="84.117737"
         x="2.953162"
         y="-21.506851" />
    </clipPath>
    <clipPath
       clipPathUnits="userSpaceOnUse"
       id="clipPath1089">
      <rect
         style="opacity:1;fill:#ffffff;fill-opacity:0;fill-rule:evenodd;stroke:#00ffff;stroke-width:0.48097408;stroke-miterlimit:4;stroke-dasharray:none;stroke-dashoffset:0;stroke-opacity:1;paint-order:normal"
         id="rect1091"
         width="63.423141"
         height="84.117737"
         x="2.953162"
         y="-21.506851" />
    </clipPath>
    <clipPath
       clipPathUnits="userSpaceOnUse"
       id="clipPath1093">
      <rect
         style="opacity:1;fill:#ffffff;fill-opacity:0;fill-rule:evenodd;stroke:#00ffff;stroke-width:0.48097408;stroke-miterlimit:4;stroke-dasharray:none;stroke-dashoffset:0;stroke-opacity:1;paint-order:normal"
         id="rect1095"
         width="63.423141"
         height="84.117737"
         x="2.953162"
         y="-21.506851" />
    </clipPath>
    <clipPath
       clipPathUnits="userSpaceOnUse"
       id="clipPath1097">
      <rect
         style="opacity:1;fill:#ffffff;fill-opacity:0;fill-rule:evenodd;stroke:#00ffff;stroke-width:0.48097408;stroke-miterlimit:4;stroke-dasharray:none;stroke-dashoffset:0;stroke-opacity:1;paint-order:normal"
         id="rect1099"
         width="63.423141"
         height="84.117737"
         x="2.953162"
         y="-21.506851" />
    </clipPath>
  </defs>
  <sodipodi:namedview
     id="base"
     pagecolor="#ffffff"
     bordercolor="#666666"
     borderopacity="1.0"
     inkscape:pageopacity="0.0"
     inkscape:pageshadow="2"
     inkscape:zoom="0.7"
     inkscape:cx="358.40136"
     inkscape:cy="324.55421"
     inkscape:document-units="mm"
     inkscape:current-layer="g961"
     showgrid="false"
     units="px"
     inkscape:window-width="2560"
     inkscape:window-height="1017"
     inkscape:window-x="1912"
     inkscape:window-y="-8"
     inkscape:window-maximized="1" />
  <metadata
     id="metadata5">
    <rdf:RDF>
      <cc:Work
         rdf:about="">
        <dc:format>image/svg+xml</dc:format>
        <dc:type
           rdf:resource="http://purl.org/dc/dcmitype/StillImage" />
        <dc:title></dc:title>
      </cc:Work>
    </rdf:RDF>
  </metadata>
  <g
     inkscape:label="Layer 1"
     inkscape:groupmode="layer"
     id="layer1"
     transform="translate(0,-191.16665)">
    <g
       id="g961"
       transform="matrix(1.0906057,0,0,1.1098744,7.3625982,105.04548)">
      <path
         id="path875"
         d="m 21.277913,38.050524 c -0.464,0 -0.841,-0.376 -0.841,-0.84 V 8.0745237 c 0,-0.464 0.376,-0.841 0.841,-0.841 0.464,0 0.84,0.376 0.84,0.841 V 37.210524 c 0,0.464 -0.376,0.84 -0.84,0.84 z"
         inkscape:connector-curvature="0"
         clip-path="url(#clipPath1097)"
         transform="matrix(1.116953,0,0,1.116953,2.6103545,103.10364)" />
      <path
         id="path877"
         d="m 21.277913,3.7785237 c -0.464,0 -0.841,-0.376 -0.841,-0.84 v -10.646 c 0,-0.464 0.376,-0.84 0.841,-0.84 0.464,0 0.84,0.376 0.84,0.84 v 10.646 c 0,0.464 -0.376,0.84 -0.84,0.84 z"
         inkscape:connector-curvature="0"
         clip-path="url(#clipPath1093)"
         transform="matrix(1.116953,0,0,1.116953,2.6103545,103.10364)" />
      <path
         id="path879"
         d="m 28.374913,31.794524 c -0.464,0 -0.84,-0.377 -0.84,-0.84 v -12.141 c 0,-0.464 0.376,-0.841 0.84,-0.841 0.464,0 0.841,0.376 0.841,0.841 v 12.141 c -0.001,0.463 -0.377,0.84 -0.841,0.84 z"
         inkscape:connector-curvature="0"
         clip-path="url(#clipPath1089)"
         transform="matrix(1.116953,0,0,1.116953,2.6103545,103.10364)" />
      <path
         id="path881"
         d="m 28.374913,2.2145237 c -0.464,0 -0.84,-0.376 -0.84,-0.84 V -13.964476 c 0,-0.464 0.376,-0.84 0.84,-0.84 0.464,0 0.841,0.376 0.841,0.84 V 1.3735237 c -0.001,0.465 -0.377,0.841 -0.841,0.841 z"
         inkscape:connector-curvature="0"
         clip-path="url(#clipPath1085)"
         transform="matrix(1.116953,0,0,1.116953,2.6103545,103.10364)" />
      <path
         id="path883"
         d="m 35.058913,35.832524 c -0.464,0 -0.84,-0.376 -0.84,-0.841 V 7.3275237 c 0,-0.464 0.376,-0.84 0.84,-0.84 0.464,0 0.84,0.376 0.84,0.84 V 34.991524 c 0,0.465 -0.376,0.841 -0.84,0.841 z"
         inkscape:connector-curvature="0"
         clip-path="url(#clipPath1081)"
         transform="matrix(1.116953,0,0,1.116953,2.6103545,103.10364)" />
      <path
         id="path885"
         d="m 35.058913,3.0315237 c -0.464,0 -0.84,-0.376 -0.84,-0.84 v -10.646 c 0,-0.464 0.376,-0.84 0.84,-0.84 0.464,0 0.84,0.376 0.84,0.84 v 10.646 c 0,0.464 -0.376,0.84 -0.84,0.84 z"
         inkscape:connector-curvature="0"
         clip-path="url(#clipPath1077)"
         transform="matrix(1.116953,0,0,1.116953,2.6103545,103.10364)" />
      <path
         id="path887"
         d="m 48.357913,37.863524 c -0.463,0 -0.84,-0.376 -0.84,-0.841 v -26.146 c 0,-0.464 0.377,-0.84 0.84,-0.84 0.465,0 0.841,0.376 0.841,0.84 v 26.147 c 0,0.464 -0.376,0.84 -0.841,0.84 z"
         inkscape:connector-curvature="0"
         clip-path="url(#clipPath1073)"
         transform="matrix(1.116953,0,0,1.116953,2.6103545,103.10364)" />
      <path
         id="path889"
         d="m 48.357913,8.1685237 c -0.463,0 -0.84,-0.376 -0.84,-0.84 v -15.223 c 0,-0.464 0.377,-0.84 0.84,-0.84 0.465,0 0.841,0.376 0.841,0.84 v 15.222 c 0,0.465 -0.376,0.841 -0.841,0.841 z"
         inkscape:connector-curvature="0"
         clip-path="url(#clipPath1069)"
         transform="matrix(1.116953,0,0,1.116953,2.6103545,103.10364)" />
      <path
         id="path891"
         d="m 41.354913,17.062524 c -0.463,0 -0.84,-0.376 -0.84,-0.84 v -27.805 c 0,-0.464 0.377,-0.84 0.84,-0.84 0.465,0 0.841,0.376 0.841,0.84 v 27.805 c -10e-4,0.464 -0.377,0.84 -0.841,0.84 z"
         inkscape:connector-curvature="0"
         clip-path="url(#clipPath1065)"
         transform="matrix(1.116953,0,0,1.116953,2.6103545,103.10364)" />
      <path
         id="path893"
         d="m 41.354913,34.175524 c -0.463,0 -0.84,-0.377 -0.84,-0.84 v -6.608 c 0,-0.464 0.377,-0.841 0.84,-0.841 0.465,0 0.841,0.377 0.841,0.841 v 6.608 c -10e-4,0.463 -0.377,0.84 -0.841,0.84 z"
         inkscape:connector-curvature="0"
         clip-path="url(#clipPath1061)"
         transform="matrix(1.116953,0,0,1.116953,2.6103545,103.10364)" />
      <path
         id="path895"
         d="m 35.058913,48.757524 c -7.284,0 -15.025,-1.984 -15.025,-5.662 0,-0.464 0.376,-0.84 0.841,-0.84 0.465,0 0.84,0.376 0.84,0.84 0,1.662 5.077,3.98 13.344,3.98 8.268,0 13.343,-2.318 13.343,-3.98 0,-0.464 0.376,-0.84 0.841,-0.84 0.464,0 0.84,0.376 0.84,0.84 0,3.677 -7.74,5.662 -15.024,5.662 z"
         inkscape:connector-curvature="0"
         clip-path="url(#clipPath1057)"
         transform="matrix(1.116953,0,0,1.116953,2.6103545,103.10364)" />
      <g
         id="g903"
         transform="matrix(1.116953,0,0,1.116953,-8.2286475,76.856948)"
         clip-path="url(#clipPath1053)">
        <path
           id="path897"
           d="m 57.105,65.059 c -0.146,0 -0.297,-0.039 -0.432,-0.12 -0.267,-0.159 -0.572,-0.318 -0.908,-0.471 -0.422,-0.192 -0.609,-0.69 -0.418,-1.112 0.191,-0.422 0.689,-0.609 1.113,-0.418 0.393,0.178 0.756,0.367 1.078,0.56 0.397,0.239 0.527,0.755 0.288,1.153 -0.156,0.261 -0.435,0.408 -0.721,0.408 z"
           inkscape:connector-curvature="0" />
        <path
           id="path899"
           d="m 36.163,63.6 c -0.374,0 -0.715,-0.251 -0.813,-0.63 -0.116,-0.449 0.154,-0.907 0.603,-1.024 0.646,-0.168 1.333,-0.316 2.042,-0.444 0.454,-0.081 0.894,0.222 0.976,0.679 0.083,0.457 -0.221,0.895 -0.678,0.977 -0.667,0.119 -1.313,0.26 -1.918,0.416 -0.072,0.017 -0.143,0.026 -0.212,0.026 z m 17.076,-0.032 c -0.069,0 -0.138,-0.008 -0.208,-0.025 -0.605,-0.154 -1.251,-0.291 -1.92,-0.408 -0.457,-0.08 -0.764,-0.516 -0.684,-0.973 0.081,-0.458 0.516,-0.765 0.973,-0.684 0.711,0.125 1.398,0.271 2.045,0.435 0.449,0.114 0.722,0.571 0.607,1.021 -0.095,0.38 -0.438,0.634 -0.813,0.634 z M 41.156,62.77 c -0.431,0 -0.797,-0.328 -0.836,-0.766 -0.041,-0.463 0.3,-0.871 0.763,-0.912 0.67,-0.059 1.366,-0.103 2.065,-0.129 0.468,-0.029 0.854,0.344 0.872,0.808 0.018,0.464 -0.344,0.854 -0.808,0.872 -0.671,0.025 -1.338,0.066 -1.98,0.124 -0.026,0.003 -0.051,0.003 -0.076,0.003 z m 7.087,-0.011 c -0.024,0 -0.048,-10e-4 -0.073,-0.003 -0.643,-0.055 -1.309,-0.096 -1.98,-0.119 -0.463,-0.016 -0.826,-0.405 -0.81,-0.869 0.016,-0.453 0.389,-0.811 0.839,-0.811 0.01,0 0.02,0 0.03,0 0.699,0.025 1.394,0.066 2.065,0.124 0.462,0.04 0.805,0.446 0.766,0.909 -0.038,0.438 -0.404,0.769 -0.837,0.769 z"
           inkscape:connector-curvature="0" />
        <path
           id="path901"
           d="m 32.305,65.129 c -0.281,0 -0.555,-0.141 -0.714,-0.396 -0.246,-0.394 -0.125,-0.912 0.269,-1.157 0.322,-0.201 0.683,-0.395 1.074,-0.578 0.42,-0.196 0.921,-0.014 1.117,0.406 0.197,0.421 0.015,0.921 -0.405,1.117 -0.331,0.154 -0.632,0.316 -0.897,0.48 -0.139,0.087 -0.293,0.128 -0.444,0.128 z"
           inkscape:connector-curvature="0" />
      </g>
      <path
         id="path905"
         d="m 59.450913,41.827524 c -0.009,-0.006 -0.015,-0.013 -0.022,-0.018 l -6.413,-3.848 c -0.396,-0.24 -0.914,-0.11 -1.153,0.288 -0.238,0.397 -0.109,0.915 0.289,1.153 l 5.622,3.373 -5.927,8.096 h -33.576 l -5.941,-8.117 5.153,-3.298 c 0.391,-0.251 0.505,-0.771 0.255,-1.161 -0.25,-0.39 -0.769,-0.504 -1.161,-0.255 l -5.907,3.78 c -0.002,0.002 -0.005,0.005 -0.008,0.008 -0.336,0.109 -0.581,0.422 -0.581,0.795 v 7.261 c 0,0.183 0.06,0.36 0.169,0.505 l 6.779,8.995 c 0.159,0.211 0.407,0.335 0.671,0.335 h 34.717 c 0.265,0 0.513,-0.124 0.672,-0.335 l 6.779,-8.995 c 0.109,-0.145 0.169,-0.322 0.169,-0.505 v -7.261 c 0,-0.374 -0.247,-0.688 -0.586,-0.796 z m -7.452,16.211 h -33.88 l -6.357,-8.435 v -4.777 l 5.404,7.382 c 0.159,0.217 0.411,0.345 0.678,0.345 h 34.428 c 0.269,0 0.52,-0.128 0.678,-0.345 l 5.406,-7.382 v 4.777 z"
         inkscape:connector-curvature="0"
         clip-path="url(#clipPath1049)"
         transform="matrix(1.116953,0,0,1.116953,2.6103545,103.10364)" />
      <g
         id="g909"
         transform="matrix(1.116953,0,0,1.116953,-8.2286475,76.856948)"
         clip-path="url(#clipPath1045)">
        <path
           id="path907"
           d="m 38.079,38.199 c -0.464,0 -0.84,-0.376 -0.84,-0.84 0,-1.565 -1.273,-2.838 -2.838,-2.838 -0.464,0 -0.841,-0.376 -0.841,-0.84 0,-0.464 0.376,-0.84 0.841,-0.84 1.565,0 2.838,-1.273 2.838,-2.837 0,-0.464 0.376,-0.84 0.84,-0.84 0.464,0 0.841,0.376 0.841,0.84 0,1.564 1.273,2.837 2.838,2.837 0.464,0 0.841,0.376 0.841,0.84 0,0.464 -0.376,0.84 -0.841,0.84 -1.565,0 -2.838,1.273 -2.838,2.838 -0.001,0.464 -0.377,0.84 -0.841,0.84 z M 37.022,33.68 c 0.408,0.292 0.765,0.649 1.056,1.057 0.292,-0.408 0.649,-0.765 1.057,-1.057 -0.408,-0.291 -0.765,-0.648 -1.057,-1.056 -0.29,0.407 -0.648,0.765 -1.056,1.056 z"
           inkscape:connector-curvature="0" />
      </g>
      <g
         id="g913"
         transform="matrix(1.116953,0,0,1.116953,-8.2286475,76.856948)"
         clip-path="url(#clipPath1041)">
        <path
           id="path911"
           d="m 44.705,12.511 c -0.464,0 -0.84,-0.376 -0.84,-0.84 0,-1.565 -1.273,-2.838 -2.838,-2.838 -0.464,0 -0.84,-0.376 -0.84,-0.84 0,-0.464 0.376,-0.84 0.84,-0.84 1.565,0 2.838,-1.273 2.838,-2.837 0,-0.464 0.376,-0.84 0.84,-0.84 0.464,0 0.841,0.376 0.841,0.84 0,1.564 1.272,2.837 2.837,2.837 0.465,0 0.842,0.376 0.842,0.84 0,0.464 -0.377,0.84 -0.842,0.84 -1.564,0 -2.837,1.273 -2.837,2.838 0,0.464 -0.377,0.84 -0.841,0.84 z M 43.649,7.992 c 0.407,0.292 0.765,0.649 1.056,1.056 C 44.997,8.641 45.353,8.283 45.761,7.992 45.353,7.701 44.996,7.344 44.705,6.936 44.414,7.344 44.056,7.701 43.649,7.992 Z"
           inkscape:connector-curvature="0" />
      </g>
      <path
         id="path915"
         d="m 41.354913,23.994524 c -1.308,0 -2.372,-1.064 -2.372,-2.372 0,-1.309 1.064,-2.374 2.372,-2.374 1.309,0 2.373,1.064 2.373,2.374 0,1.308 -1.065,2.372 -2.373,2.372 z m 0,-3.065 c -0.381,0 -0.691,0.311 -0.691,0.693 0,0.381 0.311,0.691 0.691,0.691 0.382,0 0.691,-0.311 0.691,-0.691 0,-0.382 -0.31,-0.693 -0.691,-0.693 z"
         inkscape:connector-curvature="0"
         clip-path="url(#clipPath1037)"
         transform="matrix(1.116953,0,0,1.116953,2.6103545,103.10364)" />
      <path
         id="path917"
         d="m 26.086913,56.073524 h -6.023 c -0.464,0 -0.84,-0.377 -0.84,-0.841 0,-0.464 0.376,-0.841 0.84,-0.841 h 6.023 c 0.464,0 0.84,0.377 0.84,0.841 0,0.464 -0.376,0.841 -0.84,0.841 z"
         inkscape:connector-curvature="0"
         clip-path="url(#clipPath1033)"
         transform="matrix(1.116953,0,0,1.116953,2.6103545,103.10364)" />
      <path
         id="path919"
         d="m 50.179913,56.073524 c -0.224,0 -0.437,-0.09 -0.595,-0.247 -0.156,-0.156 -0.246,-0.376 -0.246,-0.594 0,-0.224 0.09,-0.437 0.246,-0.595 0.314,-0.312 0.875,-0.312 1.188,0 0.157,0.158 0.247,0.376 0.247,0.595 0,0.218 -0.09,0.438 -0.247,0.594 -0.156,0.157 -0.37,0.247 -0.593,0.247 z"
         inkscape:connector-curvature="0"
         clip-path="url(#clipPath1029)"
         transform="matrix(1.116953,0,0,1.116953,2.6103545,103.10364)" />
      <path
         id="path921"
         d="m 47.377913,56.073524 c -0.219,0 -0.438,-0.09 -0.594,-0.247 -0.156,-0.156 -0.246,-0.376 -0.246,-0.594 0,-0.219 0.09,-0.437 0.246,-0.595 0.314,-0.312 0.874,-0.312 1.188,0 0.157,0.158 0.247,0.376 0.247,0.595 0,0.218 -0.09,0.438 -0.247,0.594 -0.156,0.157 -0.375,0.247 -0.594,0.247 z"
         inkscape:connector-curvature="0"
         clip-path="url(#clipPath1025)"
         transform="matrix(1.116953,0,0,1.116953,2.6103545,103.10364)" />
    </g>
  </g>
</svg>
